<svg xmlns="http://www.w3.org/2000/svg" viewBox="0 0 512 512" role="img" aria-label="Wardrobe Wizard">
  <rect width="512" height="512" rx="112" fill="#1f2328"/>
  <path d="M143 178c0-27 22-49 49-49h128c27 0 49 22 49 49v205H143V178Z" fill="#f8fafc"/>
  <path d="M183 383V181c0-10 8-18 18-18h110c10 0 18 8 18 18v202" fill="#e9edf2"/>
  <path d="M224 129c0-18 14-32 32-32s32 14 32 32" fill="none" stroke="#f8fafc" stroke-width="24" stroke-linecap="round"/>
  <path d="M256 163v220" stroke="#1f2328" stroke-width="14" stroke-linecap="round"/>
  <path d="M224 235h-20m104 0h-20" stroke="#1f2328" stroke-width="14" stroke-linecap="round"/>
  <path d="m369 125 11 30 30 11-30 11-11 30-11-30-30-11 30-11 11-30Z" fill="#f4c95d"/>
  <path d="m147 103 8 21 21 8-21 8-8 21-8-21-21-8 21-8 8-21Z" fill="#7dd3fc"/>
</svg>
